<svg version="1.1" id="Layer_1" xmlns="http://www.w3.org/2000/svg" xmlns:xlink="http://www.w3.org/1999/xlink" x="0px" y="0px"
	 width="100%" viewBox="0 0 574 574" enable-background="new 0 0 574 574" xml:space="preserve">
<path fill="#E76625" opacity="1.000000" stroke="none" 
	d="
M575.000000,259.000000 
	C575.000000,278.020905 575.000000,297.041779 574.621887,316.725464 
	C573.834778,320.809143 573.381653,324.225403 573.024414,327.651703 
	C571.276855,344.410645 567.133667,360.626801 562.104248,376.658844 
	C556.028015,396.027313 547.520081,414.290283 537.571411,431.944550 
	C526.665649,451.297302 513.473633,468.990204 498.240021,485.058411 
	C489.722046,494.043091 480.737152,502.804047 470.902954,510.269958 
	C456.642609,521.096130 441.923187,531.514648 426.482147,540.536804 
	C408.622406,550.972229 389.511108,559.181824 369.317352,564.207397 
	C355.755188,567.582642 341.986084,570.130493 328.297058,572.988708 
	C324.554535,573.770081 320.766937,574.335510 317.000000,575.000000 
	C297.979095,575.000000 278.958221,575.000000 259.277863,574.623901 
	C244.643402,571.829407 230.498962,570.122803 216.728592,566.844849 
	C187.851120,559.970642 160.860779,548.320496 135.779144,532.361267 
	C113.952583,518.473267 93.594276,502.780151 76.664520,483.068085 
	C68.132301,473.133606 59.748219,463.026031 51.974556,452.496643 
	C40.025085,436.311066 30.759357,418.564819 22.948153,400.011200 
	C12.841619,376.005585 6.089027,351.157288 2.969939,325.303345 
	C2.472850,321.182983 1.664470,317.100159 1.000001,313.000000 
	C1.000000,296.979095 1.000000,280.958221 1.380051,264.271301 
	C3.165693,253.236343 4.279912,242.817734 6.035422,232.508347 
	C10.130160,208.461609 18.140892,185.668579 28.676157,163.707245 
	C39.906322,140.297348 53.929871,118.793419 71.111633,99.272560 
	C86.430702,81.867973 103.302773,66.293922 122.253998,52.922009 
	C140.730148,39.885292 160.467789,29.245707 181.455368,20.872925 
	C204.092072,11.842248 227.404984,5.511425 251.697968,2.960459 
	C255.821793,2.527423 259.900482,1.664380 264.000000,1.000000 
	C280.020905,1.000000 296.041779,1.000000 312.728607,1.379997 
	C320.909912,2.526156 328.605682,2.517305 335.904083,4.215866 
	C352.338562,8.040673 368.778412,12.076658 384.843262,17.196594 
	C405.391510,23.745426 424.600281,33.493256 442.690491,45.249027 
	C463.390991,58.701069 482.766357,73.803139 499.049011,92.548698 
	C505.630127,100.125267 512.708862,107.343826 518.616455,115.416618 
	C533.382019,135.593811 546.016479,157.035614 555.155396,180.439850 
	C562.933350,200.358780 569.011169,220.702911 572.036194,241.916641 
	C572.851685,247.635666 574.002869,253.306854 575.000000,259.000000 
M245.185349,305.145935 
	C245.336182,305.273010 245.487000,305.400085 245.476624,306.251678 
	C219.724167,368.180420 239.802399,431.765167 273.104858,466.931885 
	C266.961121,435.064301 272.094055,405.830353 290.174774,378.419586 
	C315.793701,403.724670 330.691742,432.940857 328.935699,469.089661 
	C327.169830,505.441467 308.385498,532.262939 280.047333,553.982178 
	C294.531860,551.261414 308.739960,548.539673 322.290619,543.898438 
	C375.269257,525.752991 412.973633,491.180725 432.526428,438.157715 
	C444.701172,405.142365 446.528564,370.920105 442.536987,336.235413 
	C440.104279,315.096344 435.360687,294.599854 424.965027,275.764191 
	C424.316833,274.589691 423.498688,273.508942 422.523376,272.025116 
	C412.723450,302.032288 389.892029,323.011261 370.226532,325.643677 
	C400.031433,270.757385 407.700714,213.902573 385.027222,154.598206 
	C362.580688,95.887466 321.440308,56.225464 262.391907,35.095737 
	C262.851074,37.089451 263.778809,38.643227 264.708038,40.196106 
	C290.366669,83.075516 284.289246,133.316772 248.890671,168.425827 
	C240.032440,177.211594 230.516922,185.342850 221.179810,193.635651 
	C206.879822,206.336227 191.442856,217.650421 178.367676,231.855118 
	C136.488495,277.352081 122.535721,331.176422 132.541687,390.921021 
	C142.463760,450.164581 178.593079,489.821655 232.328262,514.473389 
	C232.901550,514.736389 233.628952,514.663391 234.677200,514.797546 
	C231.502121,510.676208 228.491455,507.106049 225.846069,503.283142 
	C193.310272,456.265106 184.112152,406.367889 208.218246,352.826294 
	C216.639786,334.121368 228.816406,317.921570 245.185349,305.145935 
z"/>
<path fill="#FFFFFF" opacity="1.000000" stroke="none" 
	d="
M263.531342,1.000000 
	C259.900482,1.664380 255.821793,2.527423 251.697968,2.960459 
	C227.404984,5.511425 204.092072,11.842248 181.455368,20.872925 
	C160.467789,29.245707 140.730148,39.885292 122.253998,52.922009 
	C103.302773,66.293922 86.430702,81.867973 71.111633,99.272560 
	C53.929871,118.793419 39.906322,140.297348 28.676157,163.707245 
	C18.140892,185.668579 10.130160,208.461609 6.035422,232.508347 
	C4.279912,242.817734 3.165693,253.236343 1.380051,263.802673 
	C1.000000,176.406296 1.000000,88.812599 1.000000,1.000000 
	C88.354103,1.000000 175.708389,1.000000 263.531342,1.000000 
z"/>
<path fill="#FFFFFF" opacity="1.000000" stroke="none" 
	d="
M575.000000,258.531342 
	C574.002869,253.306854 572.851685,247.635666 572.036194,241.916641 
	C569.011169,220.702911 562.933350,200.358780 555.155396,180.439850 
	C546.016479,157.035614 533.382019,135.593811 518.616455,115.416618 
	C512.708862,107.343826 505.630127,100.125267 499.049011,92.548698 
	C482.766357,73.803139 463.390991,58.701069 442.690491,45.249027 
	C424.600281,33.493256 405.391510,23.745426 384.843262,17.196594 
	C368.778412,12.076658 352.338562,8.040673 335.904083,4.215866 
	C328.605682,2.517305 320.909912,2.526156 313.197266,1.379997 
	C400.259796,1.000000 487.519623,1.000000 575.000000,1.000000 
	C575.000000,86.687431 575.000000,172.375061 575.000000,258.531342 
z"/>
<path fill="#FFFFFF" opacity="1.000000" stroke="none" 
	d="
M1.000001,313.468658 
	C1.664470,317.100159 2.472850,321.182983 2.969939,325.303345 
	C6.089027,351.157288 12.841619,376.005585 22.948153,400.011200 
	C30.759357,418.564819 40.025085,436.311066 51.974556,452.496643 
	C59.748219,463.026031 68.132301,473.133606 76.664520,483.068085 
	C93.594276,502.780151 113.952583,518.473267 135.779144,532.361267 
	C160.860779,548.320496 187.851120,559.970642 216.728592,566.844849 
	C230.498962,570.122803 244.643402,571.829407 258.809204,574.623901 
	C173.072388,575.000000 87.144768,575.000000 1.000000,575.000000 
	C1.000000,487.979218 1.000000,400.958282 1.000001,313.468658 
z"/>
<path fill="#FFFFFF" opacity="1.000000" stroke="none" 
	d="
M317.468658,575.000000 
	C320.766937,574.335510 324.554535,573.770081 328.297058,572.988708 
	C341.986084,570.130493 355.755188,567.582642 369.317352,564.207397 
	C389.511108,559.181824 408.622406,550.972229 426.482147,540.536804 
	C441.923187,531.514648 456.642609,521.096130 470.902954,510.269958 
	C480.737152,502.804047 489.722046,494.043091 498.240021,485.058411 
	C513.473633,468.990204 526.665649,451.297302 537.571411,431.944550 
	C547.520081,414.290283 556.028015,396.027313 562.104248,376.658844 
	C567.133667,360.626801 571.276855,344.410645 573.024414,327.651703 
	C573.381653,324.225403 573.834778,320.809143 574.621887,317.194122 
	C575.000000,402.927032 575.000000,488.854095 575.000000,575.000000 
	C489.312561,575.000000 403.624939,575.000000 317.468658,575.000000 
z"/>
<path fill="#FFFFFE" opacity="1.000000" stroke="none" 
	d="
M244.747269,304.748260 
	C228.816406,317.921570 216.639786,334.121368 208.218246,352.826294 
	C184.112152,406.367889 193.310272,456.265106 225.846069,503.283142 
	C228.491455,507.106049 231.502121,510.676208 234.677200,514.797546 
	C233.628952,514.663391 232.901550,514.736389 232.328262,514.473389 
	C178.593079,489.821655 142.463760,450.164581 132.541687,390.921021 
	C122.535721,331.176422 136.488495,277.352081 178.367676,231.855118 
	C191.442856,217.650421 206.879822,206.336227 221.179810,193.635651 
	C230.516922,185.342850 240.032440,177.211594 248.890671,168.425827 
	C284.289246,133.316772 290.366669,83.075516 264.708038,40.196106 
	C263.778809,38.643227 262.851074,37.089451 262.391907,35.095737 
	C321.440308,56.225464 362.580688,95.887466 385.027222,154.598206 
	C407.700714,213.902573 400.031433,270.757385 370.226532,325.643677 
	C389.892029,323.011261 412.723450,302.032288 422.523376,272.025116 
	C423.498688,273.508942 424.316833,274.589691 424.965027,275.764191 
	C435.360687,294.599854 440.104279,315.096344 442.536987,336.235413 
	C446.528564,370.920105 444.701172,405.142365 432.526428,438.157715 
	C412.973633,491.180725 375.269257,525.752991 322.290619,543.898438 
	C308.739960,548.539673 294.531860,551.261414 280.047333,553.982178 
	C308.385498,532.262939 327.169830,505.441467 328.935699,469.089661 
	C330.691742,432.940857 315.793701,403.724670 290.174774,378.419586 
	C272.094055,405.830353 266.961121,435.064301 273.104858,466.931885 
	C239.802399,431.765167 219.724167,368.180420 245.702698,305.631592 
	C245.866608,304.728302 245.804443,304.445099 245.742279,304.161926 
	C245.410614,304.357361 245.078934,304.552826 244.747269,304.748260 
z"/>
<path fill="#E76625" opacity="1.000000" stroke="none" 
	d="
M244.966309,304.947083 
	C245.078934,304.552826 245.410614,304.357361 245.742279,304.161926 
	C245.804443,304.445099 245.866608,304.728302 245.783310,305.269318 
	C245.487000,305.400085 245.336182,305.273010 244.966309,304.947083 
z"/>
</svg>